<?xml version="1.0" encoding="utf-8"?>
<!-- Generator: Adobe Illustrator 15.0.0, SVG Export Plug-In . SVG Version: 6.00 Build 0)  -->
<!DOCTYPE svg PUBLIC "-//W3C//DTD SVG 1.1//EN" "http://www.w3.org/Graphics/SVG/1.1/DTD/svg11.dtd">
<svg version="1.1" id="Layer_1" xmlns="http://www.w3.org/2000/svg" xmlns:xlink="http://www.w3.org/1999/xlink" x="0px" y="0px"
	 width="694px" height="312px" viewBox="0 0 694 312" enable-background="new 0 0 694 312" xml:space="preserve">
<g>
	<defs>
		<rect id="SVGID_1_" x="-15" y="-39.98" width="1798.41" height="389.98"/>
	</defs>
	<clipPath id="SVGID_2_">
		<use xlink:href="#SVGID_1_"  overflow="visible"/>
	</clipPath>
	<path clip-path="url(#SVGID_2_)" fill="#F7961D" d="M134.429,11.869c19.21-2.55,38.9-0.97,57.57,4.15
		c37.69,11.14,71.66,33.15,99.32,60.84c3.61,3.01,4.91,8.7,2.09,12.65c-2.98,4.36-10.05,4.5-13.46,0.58
		c-15.8-15.56-33.54-29.19-52.83-40.16c-25.13-14.24-53.99-23.61-83.15-21.43c-27.69,2.29-53.91,13.47-77.07,28.42
		c-14.5,9.52-28.23,20.29-40.44,32.63c-3.17,3.74-9.53,4.74-13.12,1.1c-4.11-3.54-3.22-10.2,0.69-13.54
		c15.6-15.73,33.35-29.32,52.44-40.56c12.18-7.25,25.13-13.23,38.6-17.66C114.499,15.259,124.449,13.199,134.429,11.869"/>
	<path clip-path="url(#SVGID_2_)" fill="#2D67B0" d="M99.179,64.349c8.6-3.59,18.32-3.27,27.32-1.55
		c-0.71,4.77-1.15,9.57-1.91,14.33c-5.52-1.29-11.78-2.5-17,0.39c-4.71,2.74-5.68,8.58-5.88,13.56c-0.21,7.77-0.03,15.54-0.07,23.31
		c6.38,0.02,12.76,0.01,19.15,0.01c-0.01,4.71,0,9.43-0.01,14.14c-6.42,0-12.84-0.01-19.26,0v71.1h-16.19c0.01-23.7,0-47.39,0-71.09
		c-6.16-0.03-12.33,0.01-18.49-0.04c-0.01-4.69-0.01-9.39-0.01-14.08c6.16-0.05,12.33-0.02,18.49-0.03
		c0.49-11.68-1.3-23.65,1.86-35.07C88.859,72.979,92.938,66.918,99.179,64.349"/>
	<path clip-path="url(#SVGID_2_)" fill="#2D67B0" d="M136.349,199.639c0.01-45.28-0.04-90.57,0.02-135.86
		c5.38,0.01,10.76,0.01,16.15,0.01c0.03,45.28,0,90.57,0.01,135.85H136.349z"/>
	<path clip-path="url(#SVGID_2_)" fill="#2D67B0" d="M359.568,82.729c5-2.01,11.26,0.83,12.45,6.22
		c2.13,6.94-6.18,13.81-12.61,10.41C352.269,96.729,352.449,85.279,359.568,82.729"/>
	<path clip-path="url(#SVGID_2_)" fill="#2D67B0" d="M594.039,115.128c10.56-4.07,22.81-3.85,33.15,0.82
		c4.92,2.06,8.62,6.03,11.71,10.25c-4.21,3.27-8.45,6.48-12.72,9.65c-3.2-3.3-6.79-6.54-11.38-7.64
		c-5.76-1.39-12.39-1.01-17.32,2.55c-3.78,2.84-3.81,8.98-0.47,12.17c4.68,4.59,11.4,5.71,17.59,6.87
		c7.53,1.64,15.61,3.81,21.02,9.689c5.69,5.971,6.53,15.11,4.52,22.801c-2.52,8.93-10.63,15.329-19.39,17.619
		c-10.09,2.66-21.021,2.601-30.95-0.67c-6.71-2.189-12.13-7.05-16.23-12.66c4.14-3.319,8.25-6.699,12.33-10.1
		c4.86,4.45,10.26,9.09,17.08,9.87c5.99,0.6,12.63-0.07,17.51-3.93c3.67-2.771,4.4-8.71,1.24-12.13
		c-3.43-3.86-8.63-5.271-13.46-6.421c-8.75-2.02-18.33-3.59-25.14-9.939c-5.87-5.59-6.83-14.47-5.08-22.03
		C580.059,124.009,586.609,117.999,594.039,115.128"/>
	<path clip-path="url(#SVGID_2_)" fill="#2D67B0" d="M256.599,114.438c7.01-0.06,14.03-0.05,21.04-0.02
		c6.79,10.04,13.67,20.01,20.49,30.02c6.77-9.98,13.47-20,20.19-30c6.59-0.05,13.19-0.08,19.78,0.02
		c-9.68,13.2-19.39,26.4-29.02,39.65c11.37,15.24,22.99,30.3,34.41,45.51c-7.01,0.04-14.01,0.021-21.02,0.021
		c-8.34-11.86-16.59-23.8-25.07-35.561c-8.39,11.82-16.68,23.711-25.03,35.561c-6.72-0.01-13.44,0.03-20.16-0.03
		c11.56-15.14,23.05-30.319,34.53-45.52C276.639,140.909,266.639,127.659,256.599,114.438"/>
	<path clip-path="url(#SVGID_2_)" fill="#2D67B0" d="M355.259,114.398h16.25v90.601c-0.09,7.569,0.56,15.409-2.06,22.68
		c-2.32,6.8-8.16,12.41-15.19,14.08c-6.3,1.54-12.92,1.1-19.16-0.46c0.32-5.05,1.1-10.061,1.64-15.09
		c4.49,1.18,9.75,2.29,13.81-0.69c4.02-3.14,4.48-8.75,4.71-13.46V114.398z"/>
	<path clip-path="url(#SVGID_2_)" fill="#2D67B0" d="M200.039,162.898h54.79c0.17-8.03,0.1-16.24-2.67-23.89
		c-3.39-10.72-11.62-19.87-22.14-23.96c-6.97-2.87-14.66-3.06-22.06-2.5c-11.62,1.22-22.73,7.33-29.63,16.82
		c-9.39,12.57-11.15,29.85-6.08,44.51c3.03,8.939,9.13,16.93,17.33,21.71c10.51,6.38,23.5,7.39,35.36,5.069
		c10.37-2,19.86-7.96,26.2-16.399c-4.09-3.101-8.16-6.23-12.25-9.32c-4.8,5.4-10.52,10.7-17.84,12.15
		c-8.46,1.63-17.52-0.49-24.47-5.53c-5.72-4.25-9.52-10.96-9.9-18.1C191.079,162.568,195.579,162.929,200.039,162.898
		 M186.569,149.759c0.76-6.4,3.44-12.6,8.13-17.09c9.05-8.89,24.87-9.99,34.83-2.03c5.73,4.62,7.7,12.14,8.26,19.17
		C220.719,149.849,203.639,149.938,186.569,149.759"/>
	<path clip-path="url(#SVGID_2_)" fill="#2D67B0" d="M472.019,149.019c-2.45-14.15-12.3-26.74-25.38-32.64
		c-8.38-4.02-17.97-4.83-27.09-3.53c-14.58,2.39-27.66,12.42-33.56,25.98c-3.58,7.53-4.33,16.06-3.45,24.27
		c1.71,13.76,10.38,26.41,22.59,32.99c9.29,5.27,20.45,6.81,30.92,4.939c12.88-2.39,24.64-10.59,30.99-22.1
		C472.168,169.959,473.799,159.169,472.019,149.019 M449.799,175.778c-9.71,13.71-32.43,14.46-43.3,1.8
		c-7.37-8.68-8.67-21.38-5.19-31.97c2.72-8.58,10.12-15.49,18.96-17.36c9.74-2.22,20.97,0.14,27.77,7.81
		C457.329,146.889,457.729,164.099,449.799,175.778"/>
	<path clip-path="url(#SVGID_2_)" fill="#2D67B0" d="M570.749,147.949c-1.8-11.19-7.87-21.9-17.35-28.31
		c-7.41-5.09-16.47-7.61-25.44-7.33c-11.36-0.15-23.03,4.9-29.62,14.36c-0.01-20.96,0.01-41.92-0.01-62.88
		c-5.38-0.01-10.76,0-16.14-0.01c-0.05,45.29-0.01,90.57-0.02,135.86c5.38,0,10.77,0.01,16.17-0.01c-0.01-4.08,0-8.16,0-12.24
		c8.23,11.22,23.07,16,36.55,13.99c11.05-1.36,21.56-7.28,28.02-16.42C570.689,174.469,572.819,160.639,570.749,147.949
		 M548.659,175.669c-7.6,10.97-23.64,13.739-35.3,8.04c-7.08-3.271-12.08-10.11-13.92-17.591c-2-8.01-1.43-16.8,2.24-24.25
		c3.11-6.3,8.92-11.16,15.65-13.16c9.36-2.69,20.25-1.12,27.67,5.47C556.079,144.608,557.019,163.299,548.659,175.669"/>
	<path clip-path="url(#SVGID_2_)" fill="#F7961D" d="M405.509,219.669c3.77-2.391,8.8-0.95,11.71,2.149
		c11.5,11.66,24.37,21.92,37.94,31.07c18.7,12.2,39.09,22.3,60.99,27.21c18.29,4.28,37.56,4.19,55.82-0.25
		c16.04-3.62,31.27-10.22,45.58-18.23c18.95-10.659,36.44-23.939,51.83-39.3c2.31-2.21,5.27-4.229,8.65-3.8
		c4.29,0.19,7.95,4.21,7.67,8.521c0.18,3.89-2.91,6.77-5.37,9.35c-25.09,24.31-54.82,44.42-88.02,55.8
		c-19.28,6.68-39.92,9.43-60.27,7.83c-32.41-2.6-62.88-16.4-89.55-34.43c-13.88-9.54-27-20.271-38.63-32.46
		C399.929,229.459,400.599,222.179,405.509,219.669"/>
</g>
</svg>
